[Header]
FileType HTR
DataType HTRS
FileVersion 1
NumSegments 64
NumFrames 3
DataFrameRate 30
EulerRotationOrder ZYX
CalibrationUnits mm
RotationUnits Degrees
GlobalAxisofGravity Y
BoneLengthAxis Y
ScaleFactor 1.0
[SegmentNames&Hierarchy]
Hips	GLOBAL
Spine	Hips
Spine1	Spine
Spine2	Spine1
Neck	Spine2
Head	Neck
LeftEye	Head
RightEye	Head
LeftShoulder	Spine2
LeftArm	LeftShoulder
LeftForeArm	LeftArm
LeftHand	LeftForeArm
LeftHandThumb1	LeftHand
LeftHandThumb2	LeftHandThumb1
LeftHandThumb3	LeftHandThumb2
LeftHandThumb4	LeftHandThumb3
LeftHandIndex1	LeftHand
LeftHandIndex2	LeftHandIndex1
LeftHandIndex3	LeftHandIndex2
LeftHandIndex4	LeftHandIndex3
LeftHandMiddle1	LeftHand
LeftHandMiddle2	LeftHandMiddle1
LeftHandMiddle3	LeftHandMiddle2
LeftHandMiddle4	LeftHandMiddle3
LeftHandRing1	LeftHand
LeftHandRing2	LeftHandRing1
LeftHandRing3	LeftHandRing2
LeftHandRing4	LeftHandRing3
LeftHandPinky1	LeftHand
LeftHandPinky2	LeftHandPinky1
LeftHandPinky3	LeftHandPinky2
LeftHandPinky4	LeftHandPinky3
RightShoulder	Spine2
RightArm	RightShoulder
RightForeArm	RightArm
RightHand	RightForeArm
RightHandPinky1	RightHand
RightHandPinky2	RightHandPinky1
RightHandPinky3	RightHandPinky2
RightHandPinky4	RightHandPinky3
RightHandRing1	RightHand
RightHandRing2	RightHandRing1
RightHandRing3	RightHandRing2
RightHandRing4	RightHandRing3
RightHandMiddle1	RightHand
RightHandMiddle2	RightHandMiddle1
RightHandMiddle3	RightHandMiddle2
RightHandMiddle4	RightHandMiddle3
RightHandIndex1	RightHand
RightHandIndex2	RightHandIndex1
RightHandIndex3	RightHandIndex2
RightHandIndex4	RightHandIndex3
RightHandThumb1	RightHand
RightHandThumb2	RightHandThumb1
RightHandThumb3	RightHandThumb2
RightHandThumb4	RightHandThumb3
LeftUpLeg	Hips
LeftLeg	LeftUpLeg
LeftFoot	LeftLeg
LeftToeBase	LeftFoot
RightUpLeg	Hips
RightLeg	RightUpLeg
RightFoot	RightLeg
RightToeBase	RightFoot
[BasePosition]
Hips	0	0	0	0	0	0	1
Spine	0	0	0	0	0	0	1
Spine1	0	0	0	0	0	0	1
Spine2	0	0	0	0	0	0	1
Neck	0	0	0	0	0	0	1
Head	0	0	0	0	0	0	1
LeftEye	0	0	0	0	0	0	1
RightEye	0	0	0	0	0	0	1
LeftShoulder	0	0	0	0	0	0	1
LeftArm	0	0	0	0	0	0	1
LeftForeArm	0	0	0	0	0	0	1
LeftHand	0	0	0	0	0	0	1
LeftHandThumb1	0	0	0	0	0	0	1
LeftHandThumb2	0	0	0	0	0	0	1
LeftHandThumb3	0	0	0	0	0	0	1
LeftHandThumb4	0	0	0	0	0	0	1
LeftHandIndex1	0	0	0	0	0	0	1
LeftHandIndex2	0	0	0	0	0	0	1
LeftHandIndex3	0	0	0	0	0	0	1
LeftHandIndex4	0	0	0	0	0	0	1
LeftHandMiddle1	0	0	0	0	0	0	1
LeftHandMiddle2	0	0	0	0	0	0	1
LeftHandMiddle3	0	0	0	0	0	0	1
LeftHandMiddle4	0	0	0	0	0	0	1
LeftHandRing1	0	0	0	0	0	0	1
LeftHandRing2	0	0	0	0	0	0	1
LeftHandRing3	0	0	0	0	0	0	1
LeftHandRing4	0	0	0	0	0	0	1
LeftHandPinky1	0	0	0	0	0	0	1
LeftHandPinky2	0	0	0	0	0	0	1
LeftHandPinky3	0	0	0	0	0	0	1
LeftHandPinky4	0	0	0	0	0	0	1
RightShoulder	0	0	0	0	0	0	1
RightArm	0	0	0	0	0	0	1
RightForeArm	0	0	0	0	0	0	1
RightHand	0	0	0	0	0	0	1
RightHandPinky1	0	0	0	0	0	0	1
RightHandPinky2	0	0	0	0	0	0	1
RightHandPinky3	0	0	0	0	0	0	1
RightHandPinky4	0	0	0	0	0	0	1
RightHandRing1	0	0	0	0	0	0	1
RightHandRing2	0	0	0	0	0	0	1
RightHandRing3	0	0	0	0	0	0	1
RightHandRing4	0	0	0	0	0	0	1
RightHandMiddle1	0	0	0	0	0	0	1
RightHandMiddle2	0	0	0	0	0	0	1
RightHandMiddle3	0	0	0	0	0	0	1
RightHandMiddle4	0	0	0	0	0	0	1
RightHandIndex1	0	0	0	0	0	0	1
RightHandIndex2	0	0	0	0	0	0	1
RightHandIndex3	0	0	0	0	0	0	1
RightHandIndex4	0	0	0	0	0	0	1
RightHandThumb1	0	0	0	0	0	0	1
RightHandThumb2	0	0	0	0	0	0	1
RightHandThumb3	0	0	0	0	0	0	1
RightHandThumb4	0	0	0	0	0	0	1
LeftUpLeg	0	0	0	0	0	0	1
LeftLeg	0	0	0	0	0	0	1
LeftFoot	0	0	0	0	0	0	1
LeftToeBase	0	0	0	0	0	0	1
RightUpLeg	0	0	0	0	0	0	1
RightLeg	0	0	0	0	0	0	1
RightFoot	0	0	0	0	0	0	1
RightToeBase	0	0	0	0	0	0	1
[Hips]
15	-822.824707	992.0679321	8.615318298	-1.274440765	-66.48545837	9.057981491	1.0
16	-873.8284302	1005.762939	10.09346199	1.715107679	-66.06492615	6.323416233	1.0
17	-923.8195801	1013.976563	14.51887608	3.660964012	-65.89375305	4.445128441	1.0
[Spine]
15	0	101.8159943	1.315000057	5.924226761	8.223796844	-3.306710958	1.0
16	0	101.8159943	1.315000057	5.925091743	7.453576088	-1.826494575	1.0
17	0	101.8159943	1.315000057	5.905542374	6.797095299	-0.8120307326	1.0
[Spine1]
15	0	100.8349991	-10.00800037	4.196657658	5.551261425	-1.483923078	1.0
16	0	100.8349991	-10.00800037	4.23375845	5.036454201	-0.9790242314	1.0
17	0	100.8349991	-10.00800037	4.244594574	4.741985798	-0.5726853013	1.0
[Spine2]
15	0	91	-13.73399925	4.174558163	5.57101202	-1.468961	1.0
16	0	91	-13.73399925	4.214949608	5.05969286	-0.9585205913	1.0
17	0	91	-13.73399925	4.225790024	4.765672684	-0.5475535989	1.0
[Neck]
15	0	166.7169952	-25.16200066	4.911552429	5.880974293	0.9361551404	1.0
16	0	166.7169952	-25.16200066	4.977188587	5.972164631	0.8482777476	1.0
17	0	166.7169952	-25.16200066	4.803729534	5.999784946	0.9246439934	1.0
[Head]
15	0	96.17900085	16.84999847	-11.69050503	33.88747025	-11.30891609	1.0
16	0	96.17900085	16.84999847	-11.49425507	34.17467117	-11.54972839	1.0
17	0	96.17900085	16.84999847	-11.69088173	34.35120392	-12.01972389	1.0
[LeftEye]
15	30.6760006	64.09500122	92.83599854	0	0	0	1.0
16	30.6760006	64.09500122	92.83599854	0	0	0	1.0
17	30.6760006	64.09500122	92.83599854	0	0	0	1.0
[RightEye]
15	-30.6760006	64.09500122	92.83499908	0	0	0	1.0
16	-30.6760006	64.09500122	92.83499908	0	0	0	1.0
17	-30.6760006	64.09500122	92.83499908	0	0	0	1.0
[LeftShoulder]
15	45.70400238	109.4599991	-26.28000069	0.409153223	1.869859576	-9.740446091	1.0
16	45.70400238	109.4599991	-26.28000069	0.3235946894	1.258720994	-9.744503975	1.0
17	45.70400238	109.4599991	-26.28000069	0.2499543279	0.5966245532	-9.597299576	1.0
[LeftArm]
15	105.923996	-5.24600029	-22.32099915	16.16154289	-6.469820976	-64.52281189	1.0
16	105.923996	-5.24600029	-22.32099915	17.14486694	-7.698610783	-65.25837708	1.0
17	105.923996	-5.24600029	-22.32099915	17.69686508	-8.803693771	-66.0464325	1.0
[LeftForeArm]
15	278.414978	-0.0009999999311	0	-3.982413091e-06	-9.890584946	-0.0001992761099	1.0
16	278.414978	-0.0009999999311	0	-1.059909437e-06	-11.73783207	-0.0002120106219	1.0
17	278.414978	-0.0009999999311	0	-4.516425179e-06	-14.09268951	-0.0002148293715	1.0
[LeftHand]
15	283.2879944	0	0	4.405748844	-6.181665897	-2.188080549	1.0
16	283.2879944	0	0	4.570002079	-7.200688839	-3.182545662	1.0
17	283.2879944	0	0	5.014190197	-7.875887871	-3.612722158	1.0
[LeftHandThumb1]
15	24.6609993	-15.75	26.8239994	30.58115005	-20.32058144	11.29641056	1.0
16	24.6609993	-15.75	26.8239994	30.58115005	-20.32058144	11.29641056	1.0
17	24.6609993	-15.75	26.8239994	30.58115005	-20.32058144	11.29641056	1.0
[LeftHandThumb2]
15	32.29800034	-18.64699936	18.64699936	10.67842007	19.94473457	-2.058459997	1.0
16	32.29800034	-18.64699936	18.64699936	9.896551132	20.29282379	-1.729615569	1.0
17	32.29800034	-18.64699936	18.64699936	10.06899834	20.71488953	-1.75701952	1.0
[LeftHandThumb3]
15	26.52600098	-15.31499958	15.31499958	-15.11012077	8.108593941	10.01028347	1.0
16	26.52600098	-15.31499958	15.31499958	-15.07775021	8.184326172	9.986079216	1.0
17	26.52600098	-15.31499958	15.31499958	-15.08242512	8.17356205	9.990436554	1.0
[LeftHandThumb4]
15	19.54599953	-11.28499985	11.28499985	0	0	0	1.0
16	19.54599953	-11.28499985	11.28499985	0	0	0	1.0
17	19.54599953	-11.28499985	11.28499985	0	0	0	1.0
[LeftHandIndex1]
15	91.09299469	-5.170999527	22.60099792	-1.352162719	-6.392418861	-24.37354088	1.0
16	91.09299469	-5.170999527	22.60099792	-1.247043133	-6.363582134	-23.13055801	1.0
17	91.09299469	-5.170999527	22.60099792	-1.265799046	-6.289718628	-23.3596344	1.0
[LeftHandIndex2]
15	36.76399994	0	0	-0.7126823068	2.795693874	-28.59775925	1.0
16	36.76399994	0	0	-0.7154112458	2.800703764	-28.65364647	1.0
17	36.76399994	0	0	-0.7196376324	2.808391571	-28.73978615	1.0
[LeftHandIndex3]
15	28.83100128	0	0	-0.2924165726	1.825286746	-18.20194054	1.0
16	28.83100128	0	0	-0.2942019701	1.830720305	-18.25811577	1.0
17	28.83100128	0	0	-0.296993494	1.839128971	-18.3450489	1.0
[LeftHandIndex4]
15	23.92700005	0	0	0	0	0	1.0
16	23.92700005	0	0	0	0	0	1.0
17	23.92700005	0	0	0	0	0	1.0
[LeftHandMiddle1]
15	95.33399963	0	0	-2.588018417	1.879678965	-37.5613327	1.0
16	95.33399963	0	0	-2.545786381	1.812434912	-37.11886215	1.0
17	95.33399963	0	0	-2.555059195	1.817475319	-37.21686554	1.0
[LeftHandMiddle2]
15	36.98199844	0	0	-0.5495442152	2.47338891	-25.04955101	1.0
16	36.98199844	0	0	-0.5484914184	2.471167088	-25.02537727	1.0
17	36.98199844	0	0	-0.5480849147	2.470244408	-25.0154686	1.0
[LeftHandMiddle3]
15	29.50900078	0	0	-0.3827443719	2.079842091	-20.8526516	1.0
16	29.50900078	0	0	-0.3818630278	2.077517509	-20.82825279	1.0
17	29.50900078	0	0	-0.3814995587	2.07656312	-20.81826019	1.0
[LeftHandMiddle4]
15	28.3390007	0	0	0	0	0	1.0
16	28.3390007	0	0	0	0	0	1.0
17	28.3390007	0	0	0	0	0	1.0
[LeftHandRing1]
15	91.04499817	-0.4390000105	-18.65100098	-2.207421541	3.404459476	-33.42347717	1.0
16	91.04499817	-0.4390000105	-18.65100098	-2.19460392	3.460463285	-33.28117371	1.0
17	91.04499817	-0.4390000105	-18.65100098	-2.215080023	3.42439723	-33.5075531	1.0
[LeftHandRing2]
15	31.54000092	0	0	-0.8886330724	3.096312761	-32.02019119	1.0
16	31.54000092	0	0	-0.8895741701	3.097798824	-32.03730392	1.0
17	31.54000092	0	0	-0.8886054158	3.096239805	-32.01938248	1.0
[LeftHandRing3]
15	29.37700081	0	0	-0.9871526361	3.248286009	-33.80031967	1.0
16	29.37700081	0	0	-0.9881352186	3.249758005	-33.81771088	1.0
17	29.37700081	0	0	-0.9871052504	3.248236418	-33.79953766	1.0
[LeftHandRing4]
15	26.47500038	0	0	0	0	0	1.0
16	26.47500038	0	0	0	0	0	1.0
17	26.47500038	0	0	0	0	0	1.0
[LeftHandPinky1]
15	80.77799988	-4.887000084	-38.06099701	-1.95696032	2.989924192	-30.44958687	1.0
16	80.77799988	-4.887000084	-38.06099701	-1.932569265	3.316784143	-30.16178894	1.0
17	80.77799988	-4.887000084	-38.06099701	-1.937584639	3.166953325	-30.22227478	1.0
[LeftHandPinky2]
15	36	0	0	-0.4757853448	2.309161186	-23.28202629	1.0
16	36	0	0	-0.4719994068	2.300349712	-23.18788147	1.0
17	36	0	0	-0.4690491557	2.293455601	-23.11425018	1.0
[LeftHandPinky3]
15	21.14200211	0	0	-0.5459963083	2.465814114	-24.96726608	1.0
16	21.14200211	0	0	-0.5393846035	2.451575518	-24.81314278	1.0
17	21.14200211	0	0	-0.5365306139	2.445405006	-24.74640083	1.0
[LeftHandPinky4]
15	19.75699997	0	0	0	0	0	1.0
16	19.75699997	0	0	0	0	0	1.0
17	19.75699997	0	0	0	0	0	1.0
[RightShoulder]
15	-45.70000076	109.4620056	-26.28000069	1.664234877	8.174608231	9.874346733	1.0
16	-45.70000076	109.4620056	-26.28000069	1.966798544	7.716732025	9.808403015	1.0
17	-45.70000076	109.4620056	-26.28000069	2.034973383	7.167520046	9.903910637	1.0
[RightArm]
15	-105.9280014	-5.248000145	-22.32099915	34.12351608	25.57876968	60.76202774	1.0
16	-105.9280014	-5.248000145	-22.32099915	32.73356247	22.99027061	58.67171478	1.0
17	-105.9280014	-5.248000145	-22.32099915	31.06180191	19.05095291	56.55836105	1.0
[RightForeArm]
15	-278.414978	0	0	5.393137599e-07	14.54264832	9.624096492e-06	1.0
16	-278.414978	0	0	-3.653241947e-06	15.79160213	-1.003737452e-05	1.0
17	-278.414978	0	0	1.769570758e-06	17.27738762	-6.877179203e-06	1.0
[RightHand]
15	-283.2879944	0	0.0009999999311	0.5981268287	0.7620513439	-3.997859478	1.0
16	-283.2879944	0	0.0009999999311	0.651588738	1.379174829	-3.648198605	1.0
17	-283.2879944	0	0.0009999999311	-1.02778399	2.907055855	-3.492332935	1.0
[RightHandPinky1]
15	-80.76699829	-4.885000229	-38.06000137	-2.195254803	-4.448236942	36.11628342	1.0
16	-80.76699829	-4.885000229	-38.06000137	-2.186736584	-4.170887947	35.98409271	1.0
17	-80.76699829	-4.885000229	-38.06000137	-2.161419392	-4.15115118	35.66690063	1.0
[RightHandPinky2]
15	-36	0	0.0009999999311	-0.3997837007	-1.883887649	23.97977829	1.0
16	-36	0	0.0009999999311	-0.4037458003	-1.892777681	24.10011101	1.0
17	-36	0	0.0009999999311	-0.405938834	-1.897674203	24.16642189	1.0
[RightHandPinky3]
15	-21.14200211	0	0	-0.1758439094	-1.265226483	15.8241539	1.0
16	-21.14200211	0	0	-0.1786552519	-1.275097609	15.9509058	1.0
17	-21.14200211	0	0	-0.1801948696	-1.280475378	16.02002144	1.0
[RightHandPinky4]
15	-19.75699997	0	0	0	0	0	1.0
16	-19.75699997	0	0	0	0	0	1.0
17	-19.75699997	0	0	0	0	0	1.0
[RightHandRing1]
15	-91.03599548	-0.4390000105	-18.65100098	-1.893713117	-6.486276627	32.31467819	1.0
16	-91.03599548	-0.4390000105	-18.65100098	-1.8974365	-6.431612015	32.3617897	1.0
17	-91.03599548	-0.4390000105	-18.65100098	-1.869111061	-6.411943913	31.99427986	1.0
[RightHandRing2]
15	-31.54000092	0	0	-0.3737629354	-1.824238181	23.1559124	1.0
16	-31.54000092	0	0	-0.3775297701	-1.833020449	23.27400589	1.0
17	-31.54000092	0	0	-0.3798362613	-1.838371158	23.34600639	1.0
[RightHandRing3]
15	-29.37700081	0	0	-0.2687294483	-1.556009293	19.59589195	1.0
16	-29.37700081	0	0	-0.2719838023	-1.56512475	19.71549416	1.0
17	-29.37700081	0	0	-0.2739751637	-1.570665121	19.78822327	1.0
[RightHandRing4]
15	-26.47500038	0	0	0	0	0	1.0
16	-26.47500038	0	0	0	0	0	1.0
17	-26.47500038	0	0	0	0	0	1.0
[RightHandMiddle1]
15	-95.32500458	0	0	-1.785785556	-2.92217207	30.89491272	1.0
16	-95.32500458	0	0	-1.784955025	-2.565260649	30.89219666	1.0
17	-95.32500458	0	0	-1.761433601	-2.339697599	30.58557701	1.0
[RightHandMiddle2]
15	-36.98199844	0	0	-0.2414086014	-1.477053165	18.56367874	1.0
16	-36.98199844	0	0	-0.240120396	-1.47321403	18.51360893	1.0
17	-36.98199844	0	0	-0.2395127863	-1.471397519	18.48995018	1.0
[RightHandMiddle3]
15	-29.50900078	0	0	-0.08694948256	-0.8960950971	11.10909271	1.0
16	-29.50900078	0	0	-0.08617091179	-0.892121613	11.05908012	1.0
17	-29.50900078	0	0	-0.0858027488	-0.8902360201	11.03535748	1.0
[RightHandMiddle4]
15	-28.3390007	0	0.0009999999311	0	0	0	1.0
16	-28.3390007	0	0.0009999999311	0	0	0	1.0
17	-28.3390007	0	0.0009999999311	0	0	0	1.0
[RightHandIndex1]
15	-91.08300018	-5.167999744	22.60099792	-1.319688439	1.624927521	24.80636406	1.0
16	-91.08300018	-5.167999744	22.60099792	-1.308969378	1.863535166	24.60848236	1.0
17	-91.08300018	-5.167999744	22.60099792	-1.271452188	2.184115171	24.09510422	1.0
[RightHandIndex2]
15	-36.76399994	0	0	-0.1020405889	-0.9677698016	12.03809166	1.0
16	-36.76399994	0	0	-0.1019333377	-0.967261374	12.03171635	1.0
17	-36.76399994	0	0	-0.1017886624	-0.9665591121	12.02285767	1.0
[RightHandIndex3]
15	-28.83100128	0	0	-0.1061724648	-0.9869327545	12.28023148	1.0
16	-28.83100128	0	0	-0.1060623825	-0.9864250422	12.27382851	1.0
17	-28.83100128	0	0	-0.1059101596	-0.9857209325	12.26492691	1.0
[RightHandIndex4]
15	-23.92700005	0	0	0	0	0	1.0
16	-23.92700005	0	0	0	0	0	1.0
17	-23.92700005	0	0	0	0	0	1.0
[RightHandThumb1]
15	-24.64799881	-15.72700024	26.82600021	-0.1902875453	0.8218618631	0.3671384752	1.0
16	-24.64799881	-15.72700024	26.82600021	-0.1902875453	0.8218618631	0.3671384752	1.0
17	-24.64799881	-15.72700024	26.82600021	-0.1902875453	0.8218618631	0.3671384752	1.0
[RightHandThumb2]
15	-32.29800034	-18.64699936	18.64699936	16.56546974	-3.423411131	-18.98790359	1.0
16	-32.29800034	-18.64699936	18.64699936	15.83436203	-4.070667744	-19.40552902	1.0
17	-32.29800034	-18.64699936	18.64699936	14.54338932	-3.870231152	-19.68355179	1.0
[RightHandThumb3]
15	-26.52600098	-15.31399918	15.31399918	-0.01444752701	7.584541321	-23.95635605	1.0
16	-26.52600098	-15.31399918	15.31399918	0.3639476001	6.689888	-23.83139801	1.0
17	-26.52600098	-15.31399918	15.31399918	0.5713146329	6.211570263	-23.72851372	1.0
[RightHandThumb4]
15	-19.54599953	-11.28499985	11.28499985	0	0	0	1.0
16	-19.54599953	-11.28499985	11.28499985	0	0	0	1.0
17	-19.54599953	-11.28499985	11.28499985	0	0	0	1.0
[LeftUpLeg]
15	82.07800293	-67.51699829	-15.99599934	-28.87618065	3.919949532	-5.226002216	1.0
16	82.07800293	-67.51699829	-15.99599934	-23.97852898	5.851013184	-2.856774092	1.0
17	82.07800293	-67.51699829	-15.99599934	-19.06439018	7.217523575	-0.7435959578	1.0
[LeftLeg]
15	0	-443.7049866	2.845999956	30.96413803	-5.666743279	-3.330425739	1.0
16	0	-443.7049866	2.845999956	26.50706673	-6.953031063	-3.606443167	1.0
17	0	-443.7049866	2.845999956	22.4852047	-7.605785847	-3.481696606	1.0
[LeftFoot]
15	0	-444.2789917	-29.8219986	-8.865941048	-2.295931578	2.436205626	1.0
16	0	-444.2789917	-29.8219986	-9.77331543	-3.438127279	1.579618812	1.0
17	0	-444.2789917	-29.8219986	-10.89966965	-4.465964317	0.7001917958	1.0
[LeftToeBase]
15	0	-87.28699493	107.1060028	-5.381279945	-2.54421393e-05	-2.272216193e-07	1.0
16	0	-87.28699493	107.1060028	-5.382892132	2.144960263e-06	6.525536378e-07	1.0
17	0	-87.28699493	107.1060028	-5.384264469	-2.091565693e-05	3.970462217e-07	1.0
[RightUpLeg]
15	-82.07800293	-67.51699829	-15.99599934	-28.6063633	-15.13480949	-0.677246511	1.0
16	-82.07800293	-67.51699829	-15.99599934	-33.27529144	-14.87048721	-0.5934439301	1.0
17	-82.07800293	-67.51699829	-15.99599934	-35.74244308	-13.87325096	-1.242678523	1.0
[RightLeg]
15	0	-443.7049866	2.861999989	65.69064331	1.30258739	3.68963933	1.0
16	0	-443.7049866	2.861999989	58.01089859	1.130236626	2.350138903	1.0
17	0	-443.7049866	2.861999989	46.83553696	0.9402350187	1.431952477	1.0
[RightFoot]
15	0	-444.2770081	-29.83799934	-2.047024965	0.0618650727	-1.467188835	1.0
16	0	-444.2770081	-29.83799934	-4.251576424	-0.1695270687	-0.4047939777	1.0
17	0	-444.2770081	-29.83799934	-4.277101517	-0.1815551966	1.266877532	1.0
[RightToeBase]
15	0	-87.28699493	107.1060028	-8.89580822	-1.821711703e-05	9.087079889e-06	1.0
16	0	-87.28699493	107.1060028	-8.533765793	-2.194726221e-05	9.045314073e-06	1.0
17	0	-87.28699493	107.1060028	-7.747458458	1.376445834e-05	3.609925514e-08	1.0
[EndOfFile]
